<svg width="42" height="44" viewBox="0 0 42 44" fill="none" xmlns="http://www.w3.org/2000/svg">
<path d="M12.3996 30H8.79963L10.7998 6.05262H13.0666L12.3996 30Z" fill="#190028"/>
<path d="M29.2 30H32.7999L30.7998 6.05262H28.533L29.2 30Z" fill="#190028"/>
<path d="M37.6001 9.34204H4.80019V11.3159H37.6001V9.34204Z" fill="#190028"/>
<path d="M21.8672 5.26327H20.1336V9.34205H21.8672V5.26327Z" fill="#190028"/>
<path d="M38.6667 3.81568H3.86656V6.05264H38.6667V3.81568Z" fill="#190028"/>
<path d="M0 0L3.86656 3.81568H38.6667L42 0C42 0 21.0664 6.97309 0 0Z" fill="#190028"/>
<path d="M7.13347 8.19081H6.40001V12.4672H7.13347V8.19081Z" fill="#190028"/>
<path d="M35.8001 8.19081H35.0667V12.4672H35.8001V8.19081Z" fill="#190028"/>
<path d="M11.9907 33.19V41H10.4837V37.667H6.9417V41H5.4237V33.19H6.9417V36.347H10.4837V33.19H11.9907ZM16.953 41.055C16.381 41.055 15.8603 40.945 15.391 40.725C14.929 40.505 14.5293 40.208 14.192 39.834C13.862 39.4527 13.6053 39.0273 13.422 38.558C13.2387 38.0813 13.147 37.5937 13.147 37.095C13.147 36.5743 13.2423 36.0793 13.433 35.61C13.631 35.1333 13.8987 34.7117 14.236 34.345C14.5807 33.971 14.984 33.6777 15.446 33.465C15.9153 33.245 16.4287 33.135 16.986 33.135C17.5507 33.135 18.064 33.2487 18.526 33.476C18.9953 33.7033 19.395 34.0077 19.725 34.389C20.055 34.7703 20.3117 35.1957 20.495 35.665C20.6783 36.1343 20.77 36.6183 20.77 37.117C20.77 37.6303 20.6747 38.1253 20.484 38.602C20.2933 39.0713 20.0257 39.493 19.681 39.867C19.3437 40.2337 18.9403 40.5233 18.471 40.736C18.009 40.9487 17.503 41.055 16.953 41.055ZM14.687 37.095C14.687 37.4323 14.7383 37.7587 14.841 38.074C14.9437 38.3893 15.0903 38.6717 15.281 38.921C15.479 39.163 15.7173 39.3573 15.996 39.504C16.282 39.6433 16.6047 39.713 16.964 39.713C17.3307 39.713 17.657 39.6397 17.943 39.493C18.229 39.339 18.4673 39.1373 18.658 38.888C18.8487 38.6313 18.9917 38.349 19.087 38.041C19.1897 37.7257 19.241 37.4103 19.241 37.095C19.241 36.7577 19.186 36.435 19.076 36.127C18.9733 35.8117 18.823 35.533 18.625 35.291C18.4343 35.0417 18.196 34.8473 17.91 34.708C17.6313 34.5613 17.316 34.488 16.964 34.488C16.59 34.488 16.26 34.565 15.974 34.719C15.6953 34.8657 15.4607 35.0637 15.27 35.313C15.0793 35.5623 14.9327 35.841 14.83 36.149C14.7347 36.457 14.687 36.7723 14.687 37.095ZM28.3034 41V35.874L26.3014 39.691H25.4544L23.4524 35.874V41H21.9344V33.19H23.5624L25.8724 37.634L28.2044 33.19H29.8214V41H28.3034ZM36.875 39.669V41H31.452V33.19H36.776V34.521H32.97V36.402H36.259V37.634H32.97V39.669H36.875Z" fill="#190028"/>
</svg>
